<?xml version="1.0" standalone="no"?>
<!DOCTYPE svg PUBLIC "-//W3C//DTD SVG 20010904//EN"
 "http://www.w3.org/TR/2001/REC-SVG-20010904/DTD/svg10.dtd">
<svg version="1.0" xmlns="http://www.w3.org/2000/svg"
 width="564.000000pt" height="564.000000pt" viewBox="0 0 564.000000 564.000000"
 preserveAspectRatio="xMidYMid meet">
<metadata>
Created by potrace 1.16, written by Peter Selinger 2001-2019
</metadata>
<g transform="translate(0.000000,564.000000) scale(0.100000,-0.100000)"
fill="#000000" stroke="none">
<path d="M0 2820 l0 -2820 2820 0 2820 0 0 2820 0 2820 -2820 0 -2820 0 0
-2820z m105 2604 c12 -19 20 -23 28 -15 14 14 52 14 77 1 11 -6 22 -26 26 -46
l6 -35 53 6 c47 6 54 5 64 -13 6 -12 11 -31 11 -43 0 -12 7 -30 16 -40 15 -17
15 -21 -5 -54 -11 -20 -21 -43 -21 -51 0 -31 -56 -10 -77 30 -9 16 -14 12 -42
-33 -17 -29 -36 -49 -41 -46 -6 4 -10 -7 -10 -25 0 -60 -36 -89 -69 -57 -11
10 -15 8 -25 -7 -20 -35 -46 -56 -66 -56 -19 0 -20 7 -20 163 0 117 4 167 12
176 11 11 11 13 0 7 -19 -11 -16 113 4 142 21 30 58 28 79 -4z m1004 -128 c17
-15 25 -17 28 -8 8 20 40 14 61 -13 11 -14 24 -25 30 -25 5 0 12 -7 16 -15 3
-8 14 -15 25 -15 11 0 23 -4 26 -10 3 -5 15 -10 27 -10 18 0 20 4 13 33 -12
55 -11 69 10 83 17 11 25 11 48 -1 15 -8 29 -10 32 -4 12 18 52 9 71 -16 11
-15 25 -23 34 -20 24 8 63 -39 58 -68 -4 -22 -1 -24 26 -23 27 1 31 -2 29 -21
-2 -13 2 -23 7 -23 6 0 14 -10 19 -22 5 -15 17 -23 32 -23 20 0 24 -5 21 -26
-2 -21 2 -25 20 -25 27 1 37 -35 15 -55 -15 -15 -5 -46 21 -62 6 -4 12 -15 12
-22 0 -11 12 -15 45 -15 38 0 47 -4 54 -22 11 -31 -9 -118 -28 -118 -17 0 -61
-46 -61 -64 0 -6 -5 -17 -12 -24 -9 -9 -8 -12 4 -12 9 0 23 -3 31 -6 10 -3 18
5 25 25 13 35 44 41 74 14 11 -9 18 -11 18 -5 0 18 32 14 64 -7 17 -11 34 -17
39 -14 5 3 21 -6 35 -20 15 -14 42 -28 59 -32 41 -8 48 -19 30 -46 -10 -14
-13 -34 -9 -61 4 -31 1 -43 -11 -50 -9 -4 -14 -15 -10 -23 8 -21 -15 -45 -43
-45 -21 0 -23 -2 -12 -19 9 -15 9 -25 0 -45 -10 -22 -9 -27 8 -36 30 -16 37
-12 32 21 -4 25 0 31 18 36 12 3 26 16 31 29 12 32 61 33 93 1 31 -31 42 -91
22 -122 -21 -32 -20 -35 8 -35 13 0 27 7 30 16 5 12 2 15 -9 10 -9 -3 -13 -2
-10 4 9 15 19 12 44 -11 17 -16 30 -20 52 -15 39 7 53 -21 21 -42 -25 -16 -29
-32 -8 -32 7 0 19 -7 27 -16 12 -14 14 -14 26 2 10 14 16 15 25 6 7 -7 22 -12
34 -12 13 0 24 -8 27 -20 4 -16 11 -19 29 -15 32 8 57 -19 41 -43 -21 -35 5
-55 34 -27 23 23 38 12 35 -23 -2 -18 1 -32 7 -32 6 0 11 -7 11 -15 0 -13 3
-13 21 -3 17 11 23 11 26 0 3 -7 12 -19 20 -27 12 -12 12 -19 3 -30 -15 -18
-3 -82 17 -89 10 -4 13 -14 10 -29 -3 -12 1 -31 8 -41 8 -10 12 -22 10 -26 -3
-5 6 -11 20 -14 16 -4 25 -13 25 -27 0 -11 7 -31 16 -44 9 -13 13 -29 9 -35
-4 -6 1 -20 11 -31 18 -20 18 -21 -6 -40 -14 -11 -34 -17 -46 -14 -29 7 -36
-4 -19 -29 8 -11 15 -27 15 -35 0 -7 8 -19 17 -26 15 -11 16 -17 4 -41 -12
-28 -12 -28 6 -11 11 9 23 17 27 17 11 0 -3 -112 -15 -124 -14 -15 -11 -23 11
-29 12 -3 20 -14 20 -26 0 -12 7 -32 16 -46 11 -17 13 -29 5 -43 -6 -12 -7
-22 0 -29 12 -12 -15 -78 -38 -92 -10 -6 -13 -11 -6 -11 7 0 11 -12 10 -27 -3
-28 -3 -28 -75 -27 -102 2 -111 7 -73 43 17 16 31 34 31 39 0 6 9 14 20 17 11
3 20 14 20 24 0 10 10 25 21 33 19 12 20 17 9 39 -7 13 -19 27 -26 32 -9 5
-11 24 -8 62 4 49 2 55 -15 55 -27 0 -39 40 -17 55 21 16 32 71 17 89 -17 20
-129 18 -140 -2 -7 -13 -13 -13 -40 -2 -17 7 -31 16 -31 20 0 13 32 21 44 11
15 -13 72 12 86 39 6 11 16 20 23 19 44 -5 63 24 42 65 -8 15 -12 39 -9 55 7
35 -9 67 -38 77 -12 3 -28 13 -36 20 -7 8 -22 14 -31 14 -20 0 -45 -23 -35
-33 3 -3 -4 -15 -16 -27 -20 -20 -40 -20 -40 2 0 46 -103 68 -128 28 -9 -15
-19 -18 -42 -14 -18 4 -36 1 -45 -6 -9 -7 -18 -10 -22 -7 -9 10 16 35 39 39
12 2 23 9 24 16 1 7 0 8 -3 2 -7 -15 -30 -12 -37 6 -4 12 -15 15 -36 12 -18
-3 -35 1 -41 9 -16 18 -36 16 -51 -6 -21 -30 -52 -34 -63 -8 -18 41 -93 28
-82 -14 4 -13 -4 -21 -25 -28 -26 -9 -29 -14 -23 -33 4 -13 6 -32 6 -43 -3
-57 -2 -68 10 -76 20 -12 -14 -23 -46 -15 -20 5 -25 13 -25 36 0 19 -7 33 -21
40 -19 11 -19 13 -5 35 12 18 13 23 3 19 -19 -7 -41 22 -30 38 4 7 8 29 8 48
0 34 1 35 45 40 37 4 45 9 50 30 3 14 14 26 25 29 11 2 28 11 37 21 15 16 15
19 2 24 -8 3 -25 1 -38 -4 -27 -10 -36 -5 -36 23 0 17 -5 18 -35 13 -33 -7
-35 -5 -35 20 0 26 -1 27 -20 9 -28 -25 -53 -13 -45 23 4 21 1 33 -14 46 -19
17 -20 17 -33 -3 -14 -24 -48 -28 -48 -7 0 7 -7 19 -15 26 -8 7 -13 16 -10 20
3 5 -9 3 -25 -3 -22 -8 -35 -9 -48 -1 -29 19 -25 43 13 78 29 27 33 35 20 39
-8 4 -15 10 -14 14 3 21 -3 23 -23 9 -28 -20 -38 -20 -38 -2 0 10 -7 12 -22 8
-18 -4 -20 -2 -14 19 14 46 12 54 -16 57 -16 2 -39 -6 -57 -19 -16 -12 -36
-19 -44 -16 -8 3 -23 -3 -32 -13 -22 -24 -71 -44 -90 -36 -8 3 -15 17 -15 31
0 18 -5 25 -20 25 -23 0 -26 19 -7 40 6 8 -3 1 -22 -15 -22 -20 -35 -26 -38
-17 -6 16 -23 15 -23 -1 0 -8 -9 -22 -20 -32 -11 -10 -20 -14 -20 -9 0 5 -11
-4 -25 -19 -27 -28 -60 -36 -68 -14 -4 8 -12 4 -25 -12 -12 -15 -25 -22 -36
-18 -18 7 -21 32 -5 42 6 4 7 19 4 35 -5 24 -2 30 24 41 24 11 31 20 31 41 0
30 -17 38 -26 13 -10 -25 -43 -18 -50 10 -3 14 -18 31 -33 38 -35 16 -40 54
-9 66 l23 10 -24 0 c-14 1 -32 -6 -41 -14 -15 -14 -18 -14 -30 0 -7 8 -19 15
-26 15 -10 0 -14 13 -14 45 0 36 5 48 25 61 13 8 32 14 42 12 24 -5 58 40 54
70 -3 29 25 62 54 62 12 0 39 13 60 30 46 37 72 45 90 30 13 -11 13 -7 0 23
-32 77 -7 136 53 122 24 -5 30 -2 35 14 3 12 13 21 22 21 11 0 15 5 12 15 -4
8 -3 17 2 19 15 9 -2 69 -27 98 -33 37 -67 37 -80 0 -5 -16 -8 -40 -5 -54 7
-37 -30 -44 -62 -12 -13 13 -29 24 -35 24 -25 0 -49 -22 -55 -50 -4 -16 -10
-30 -15 -30 -5 0 -15 -3 -24 -6 -11 -4 -16 0 -16 13 0 53 -52 77 -116 53 -18
-7 -30 -7 -40 1 -7 6 -31 9 -52 8 -24 -2 -48 3 -59 11 -16 14 -17 13 -5 -1 18
-24 -14 -76 -51 -85 -16 -3 -33 -17 -42 -33 -13 -27 -15 -27 -97 -25 -73 2
-86 0 -105 -18 -13 -12 -23 -27 -23 -35 0 -15 -28 -17 -63 -4 -29 11 -44 59
-28 89 14 26 65 46 101 39 27 -6 32 -3 49 32 15 28 28 40 51 45 29 5 31 8 25
36 -4 19 -2 36 5 46 10 11 10 18 -4 32 -9 10 -16 24 -16 30 0 16 41 42 65 42
11 0 26 9 33 20 16 26 43 25 65 -1 23 -27 43 -19 40 16 -1 16 3 35 9 42 16 19
66 16 85 -6 12 -14 24 -18 44 -14 22 4 28 1 34 -17 4 -14 12 -19 22 -16 8 3
23 6 33 6 14 0 20 9 22 32 2 23 10 36 27 45 27 13 34 11 70 -21z m420 -1170
c14 -8 30 -12 35 -10 14 5 37 -44 25 -52 -5 -3 -9 -13 -9 -23 0 -10 -11 -26
-25 -35 -25 -16 -34 -46 -15 -46 21 0 25 -4 38 -34 19 -46 8 -76 -28 -76 -23
0 -31 5 -36 25 -4 18 -13 25 -30 25 -26 0 -47 30 -38 54 4 11 0 16 -13 16 -24
0 -43 18 -43 41 0 18 26 33 41 23 13 -7 11 10 -2 23 -8 8 -8 13 0 17 6 4 11
18 11 31 0 36 44 46 89 21z m4101 -420 l0 -214 -437 -7 c-465 -8 -978 -3 -990
9 -4 4 -1 11 6 16 27 16 3 37 -51 43 -29 4 -322 7 -650 7 l-598 0 0 24 c0 14
-4 28 -10 31 -5 3 -10 16 -10 29 0 13 -13 35 -30 49 -27 25 -43 56 -21 42 5
-3 391 -8 856 -11 687 -5 847 -4 843 6 -2 7 -11 14 -19 15 -57 9 -188 38 -208
46 -35 14 -17 26 74 48 170 42 629 76 1073 79 l172 2 0 -214z m-2587 -173 c6
-3 7 -1 3 5 -9 15 1085 9 1129 -6 17 -6 22 -11 13 -11 -10 -1 -18 -4 -18 -8 1
-51 104 -56 833 -49 l627 7 0 -39 0 -40 -122 -2 c-311 -4 -769 -27 -781 -39
-15 -15 6 -31 41 -31 12 0 22 -4 22 -10 0 -5 -10 -11 -22 -12 -38 -3 -52 -5
-68 -11 -8 -3 -32 -8 -52 -12 -40 -6 -50 -20 -20 -29 36 -12 449 -28 722 -29
216 -1 266 -3 205 -9 -44 -5 -316 -7 -604 -6 -409 2 -525 6 -529 16 -2 6 -18
12 -36 12 -18 0 -37 5 -44 12 -14 14 -24 16 -137 29 -49 6 -98 14 -107 20 -12
6 -18 6 -18 -1 0 -7 -141 -10 -442 -8 -244 2 -423 0 -398 -3 25 -3 -30 -7
-122 -7 -149 -2 -168 0 -178 16 -10 15 -11 15 -6 0 3 -9 0 -19 -7 -21 -7 -2
-10 -6 -7 -9 3 -2 241 0 530 5 622 10 799 3 882 -36 79 -38 305 -49 856 -42
l442 5 0 -114 0 -113 -157 -7 c-398 -17 -480 -23 -638 -42 -114 -13 -161 -24
-335 -74 -99 -28 -147 -37 -272 -49 -132 -13 -525 -30 -739 -32 -156 -2 -169
0 -197 20 -17 12 -45 28 -63 35 -33 14 -32 14 46 20 88 7 185 23 194 32 3 3
-1 9 -8 13 -16 10 60 18 244 26 275 12 576 39 633 57 32 9 40 22 23 32 -17 11
-148 25 -326 36 -99 6 -202 13 -230 15 -27 2 -93 5 -145 6 l-95 1 108 13 c59
6 113 17 118 22 15 15 -261 26 -574 21 -228 -3 -257 -1 -257 13 0 8 -7 24 -15
35 -8 10 -15 29 -15 42 0 12 -6 25 -14 28 -11 4 -12 13 -4 40 12 46 7 120 -9
117 -7 -2 -10 3 -7 11 3 8 -4 19 -16 26 -11 6 -18 15 -14 21 3 5 1 16 -5 23
-8 9 -7 13 2 13 23 0 67 35 67 54 0 16 6 17 52 13 28 -3 56 -8 61 -11z m-1423
-289 c25 -29 48 -35 89 -23 33 10 47 9 91 -7 l52 -19 28 32 28 31 7 -25 c5
-20 11 -24 30 -21 20 4 24 1 27 -21 4 -33 40 -40 86 -15 32 17 33 17 48 -5 10
-13 25 -21 37 -20 12 1 34 -4 50 -11 21 -10 30 -11 39 -2 7 7 27 12 45 12 33
0 83 36 83 60 0 5 4 10 9 10 5 0 7 -18 4 -40 -5 -36 -3 -40 16 -40 14 0 21 -6
21 -20 0 -21 35 -41 58 -33 7 3 12 -3 12 -15 0 -17 -6 -19 -42 -16 -24 2 -77
11 -118 20 -115 25 -650 32 -758 10 -45 -9 -128 -16 -194 -16 -102 0 -117 2
-133 20 -15 16 -15 22 -5 35 7 8 23 15 37 15 35 0 75 25 103 65 22 31 29 35
60 30 19 -3 41 -1 49 4 10 7 19 4 27 -7 12 -16 16 -15 51 5 46 27 47 27 63 7z
m621 -175 c30 -6 72 -15 94 -20 22 -4 78 -8 124 -9 83 0 83 0 79 -25 -4 -18 0
-26 13 -30 14 -5 19 -16 19 -46 0 -24 5 -39 13 -40 6 0 -17 -9 -53 -20 -36
-11 -73 -24 -82 -30 -10 -5 -57 -9 -105 -8 -65 0 -82 3 -65 10 13 5 29 6 34 2
6 -3 8 -1 5 4 -4 6 0 13 8 17 26 10 16 25 -22 36 -21 6 -184 16 -363 21 -179
5 -332 10 -340 10 -8 1 -34 7 -58 15 -23 8 -62 15 -85 16 -41 1 -40 2 13 8 43
6 37 7 -28 4 -96 -5 -192 5 -192 18 0 6 7 7 16 4 14 -5 15 -4 5 8 -9 11 -9 15
1 19 8 3 5 6 -6 6 -11 1 -16 4 -13 7 4 4 75 8 159 11 84 2 155 8 158 13 12 19
575 19 671 -1z m1429 15 c-8 -1 -45 -6 -82 -9 -47 -5 -68 -11 -68 -20 0 -9 29
-15 108 -21 59 -5 114 -8 122 -6 37 5 506 -26 560 -37 l35 -7 -50 -12 c-59
-14 -103 -20 -210 -27 -109 -7 -422 -25 -520 -29 -109 -5 -146 -15 -143 -35 2
-13 -6 -16 -40 -15 -24 0 -38 -2 -32 -6 7 -4 -17 -8 -52 -9 -34 0 -82 -4 -106
-7 -34 -5 -53 -1 -97 21 -30 14 -53 30 -50 35 3 5 0 12 -6 16 -8 4 -9 3 -5 -4
10 -16 0 -15 -29 4 -14 9 -36 14 -50 12 -36 -7 -48 38 -17 63 24 19 30 35 10
23 -9 -5 -9 -3 1 9 7 9 11 28 9 42 l-5 25 366 -1 c201 -1 359 -3 351 -5z
m-2275 -120 c44 -4 100 -13 125 -21 32 -10 130 -17 330 -23 379 -12 450 -16
462 -28 6 -6 -5 -15 -30 -25 -22 -9 -43 -21 -47 -26 -10 -17 41 -24 113 -17
l67 7 -131 -79 -131 -78 -84 -3 c-107 -3 -117 -11 -14 -11 l79 0 -319 -213
c-176 -118 -366 -246 -423 -285 -100 -68 -104 -70 -122 -52 -12 12 -16 27 -12
45 5 27 4 28 -27 22 -28 -6 -31 -4 -31 19 0 32 -28 44 -46 19 -7 -10 -11 -22
-8 -27 3 -5 1 -15 -6 -22 -6 -8 -8 -25 -5 -39 6 -22 3 -25 -27 -30 -27 -4 -37
0 -55 22 -18 21 -25 24 -40 15 -12 -8 -17 -21 -15 -43 2 -23 -1 -31 -13 -31
-9 0 -15 -7 -13 -17 2 -10 -4 -19 -14 -21 -14 -3 -18 3 -18 28 0 23 -5 33 -19
37 -11 3 -22 16 -25 29 -5 19 -13 24 -36 24 -28 0 -30 -2 -30 -40 0 -23 -5
-40 -11 -40 -7 0 -9 -11 -6 -29 4 -21 2 -31 -9 -35 -26 -10 -34 -7 -34 13 0
11 -5 23 -10 26 -18 11 -42 -17 -37 -42 2 -13 -2 -28 -9 -34 -19 -15 -8 -29
22 -29 29 0 44 -30 37 -75 -4 -28 -7 -30 -42 -27 -35 4 -37 6 -33 33 5 34 -9
55 -43 61 -29 6 -45 -8 -45 -39 0 -12 -9 -27 -20 -33 -11 -6 -20 -17 -20 -24
0 -12 -6 -12 -30 -3 -21 8 -30 18 -30 34 0 12 -9 27 -19 32 -28 15 -45 -10
-37 -53 5 -26 3 -35 -10 -40 -15 -6 -15 -8 2 -28 14 -15 16 -22 7 -25 -7 -3
-13 -10 -13 -17 0 -18 -108 -15 -119 3 -7 11 -15 9 -41 -10 -29 -22 -32 -23
-41 -6 -12 21 -35 22 -47 1 -7 -13 -15 -14 -50 -4 -37 10 -44 9 -64 -10 -17
-15 -19 -23 -10 -32 7 -7 8 -16 3 -22 -5 -6 -12 -26 -16 -44 -5 -24 -3 -33 9
-38 25 -10 19 -28 -13 -42 -17 -7 -32 -21 -34 -30 -3 -9 -5 143 -6 337 -1 276
2 352 11 343 18 -18 53 -14 73 8 12 13 21 16 25 10 12 -20 55 -20 94 1 l39 20
26 -25 c46 -44 94 -32 136 35 25 38 27 39 48 24 12 -8 41 -15 64 -15 52 0 79
32 69 80 l-5 30 62 1 c34 1 50 4 36 6 -24 4 -25 6 -19 55 8 60 34 88 59 64 12
-13 18 -13 43 0 23 12 36 12 66 3 39 -11 114 1 127 20 3 5 38 7 78 4 112 -9
167 30 170 117 2 32 6 40 22 41 l20 1 -20 5 c-34 9 -44 23 -39 56 6 40 -6 59
-40 60 -22 2 -26 7 -26 30 0 31 -48 87 -74 87 -8 0 -27 12 -41 26 -17 17 -33
24 -46 21 -25 -7 -25 9 0 23 30 15 51 12 70 -11 15 -19 18 -19 45 -5 20 10 36
12 53 5 39 -14 68 -11 88 12 15 15 27 19 55 15 19 -3 71 -8 115 -12z m4235
-729 l0 -715 -53 6 c-56 7 -87 -9 -87 -42 0 -10 -14 -14 -52 -14 -48 0 -55 3
-70 30 -15 26 -22 30 -63 30 -40 0 -69 13 -228 106 -100 58 -189 109 -197 114
-8 5 -143 87 -300 181 -340 205 -474 289 -478 301 -2 4 -8 8 -14 8 -10 0 -249
160 -278 186 -8 8 -50 40 -94 71 l-79 58 64 6 64 6 -72 0 c-66 0 -75 3 -120
35 -26 19 -87 58 -135 87 -49 29 -88 54 -88 55 0 2 26 3 58 2 98 -1 570 15
722 25 185 12 293 31 432 75 128 40 246 59 449 74 123 9 406 23 572 28 l47 2
0 -715z m-2606 652 c15 -10 34 -33 42 -50 9 -18 13 -23 11 -11 -5 22 -4 22 77
-6 83 -28 259 -128 250 -142 -3 -4 2 -5 10 -2 11 4 16 0 16 -11 0 -9 14 -28
30 -42 36 -30 34 -39 -3 -20 -15 8 -24 17 -20 21 4 4 1 4 -8 1 -8 -3 -24 4
-36 15 -12 11 -27 20 -33 20 -6 0 -8 5 -5 10 4 6 3 9 -2 8 -11 -4 -83 42 -83
53 0 4 -6 6 -13 3 -7 -2 -30 2 -50 11 -62 26 -80 -7 -27 -51 32 -27 34 -41 10
-62 -10 -8 -4 -8 16 2 28 14 33 14 44 1 8 -9 21 -13 35 -9 13 3 26 0 31 -7 5
-9 2 -10 -11 -5 -15 5 -16 4 -5 -9 14 -17 35 -21 25 -5 -10 16 8 11 34 -9 l24
-18 -24 -17 c-13 -9 -18 -16 -12 -16 6 0 16 7 23 15 7 8 17 12 22 8 6 -3 1
-14 -13 -26 l-24 -19 25 14 c26 15 54 13 44 -3 -3 -5 0 -8 8 -7 7 2 12 -2 11
-9 -2 -8 4 -10 14 -6 11 4 14 3 9 -6 -5 -7 -2 -10 6 -9 7 2 12 -3 10 -10 -1
-8 1 -11 6 -8 12 7 93 -15 87 -24 -3 -5 3 -6 12 -4 18 5 103 -44 103 -59 0 -4
-4 -6 -8 -3 -4 2 -14 0 -22 -6 -13 -8 -12 -9 2 -5 9 3 22 -1 29 -9 6 -8 14
-12 17 -9 8 8 32 -32 29 -47 -2 -7 -2 -9 1 -5 5 9 32 -11 32 -24 0 -5 -8 -6
-17 -2 -10 3 -15 3 -11 -1 3 -4 12 -8 20 -10 30 -5 67 -38 63 -58 -4 -16 -2
-18 10 -8 14 12 19 7 16 -13 -1 -5 3 -6 8 -3 11 7 77 -54 73 -67 -1 -5 2 -6 8
-2 15 9 54 -15 42 -27 -7 -7 -16 -6 -30 1 -10 6 -22 7 -26 4 -3 -3 -16 2 -28
13 -23 19 -23 19 -5 -2 9 -11 14 -24 10 -29 -5 -4 2 -2 15 4 19 10 22 9 22 -9
0 -11 5 -20 11 -20 5 0 7 -5 4 -10 -4 -6 -11 -7 -17 -4 -7 4 -8 2 -4 -5 6 -8
12 -9 20 -2 9 8 19 5 34 -12 20 -21 25 -67 6 -57 -5 3 -8 10 -6 15 2 6 0 7 -4
3 -4 -4 -13 -3 -21 3 -11 10 -11 15 -1 28 11 14 11 14 -3 4 -13 -11 -20 -9
-37 10 -12 13 -19 27 -15 31 5 4 1 6 -7 4 -8 -2 -14 4 -15 12 0 8 -7 15 -15
15 -8 1 -14 7 -12 14 1 7 -2 10 -9 5 -9 -5 -10 -2 -6 10 4 9 3 14 -2 11 -5 -3
-12 -1 -15 4 -11 16 14 23 32 9 15 -12 16 -11 3 5 -8 11 -21 15 -32 12 -18 -6
-27 9 -11 18 4 2 2 3 -5 1 -16 -4 -46 32 -38 46 3 6 1 9 -6 8 -7 -2 -13 2 -14
9 0 6 -4 15 -9 20 -5 4 -6 3 -2 -4 3 -6 2 -14 -3 -17 -14 -9 -61 15 -54 27 3
6 2 8 -3 4 -13 -8 -170 79 -166 93 1 6 -2 9 -8 5 -14 -9 -42 14 -33 28 3 6 1
7 -6 3 -7 -5 -27 4 -46 19 -31 23 -34 29 -25 48 11 21 11 21 -4 3 -9 -11 -17
-17 -17 -13 -1 4 -2 13 -3 20 -1 6 -10 11 -20 9 -12 -2 -16 1 -10 10 4 7 4 10
0 6 -9 -8 -102 61 -99 73 2 5 -5 5 -14 2 -10 -4 -14 -2 -10 4 4 6 -1 10 -11 9
-9 0 -16 5 -14 12 1 8 -1 11 -6 8 -5 -3 -19 2 -31 10 -19 13 -20 18 -9 32 10
12 10 14 1 8 -8 -4 -13 -2 -13 6 0 10 -2 10 -9 -1 -7 -10 -15 -7 -41 16 -31
28 -32 30 -14 47 17 18 17 18 -1 12 -17 -5 -20 -1 -21 24 -1 19 4 30 15 32 12
3 10 6 -6 10 -19 5 -23 2 -23 -15 0 -19 -4 -18 -37 14 l-38 34 33 -36 c18 -19
29 -39 25 -44 -5 -4 -3 -5 4 -1 6 3 14 2 17 -3 3 -5 -1 -11 -9 -15 -8 -3 -17
-1 -20 4 -4 6 -16 10 -28 10 -12 0 -33 10 -47 23 -26 24 -53 26 -44 2 3 -7 0
-16 -5 -20 -6 -3 -9 -12 -5 -18 3 -7 -5 1 -18 17 -21 25 -29 28 -60 22 -30 -5
-38 -3 -51 17 -10 16 -12 28 -6 34 6 6 4 10 -5 10 -8 0 -13 -4 -10 -9 3 -4
-11 -8 -30 -8 -26 0 -38 -6 -47 -22 -8 -15 -14 -18 -17 -10 -6 19 27 52 46 45
9 -4 13 -2 9 4 -5 7 12 12 48 15 64 4 78 1 69 -14 -4 -7 -2 -8 4 -4 6 4 28 -2
49 -12 38 -19 63 -19 63 0 0 5 -9 7 -19 3 -17 -5 -121 37 -121 49 0 3 -2 10
-5 18 -4 10 17 13 103 13 87 0 113 -3 136 -18z m-552 -99 c-46 -64 -86 -105
-182 -187 -94 -80 -150 -141 -150 -164 0 -12 10 -20 30 -24 l30 -6 -40 -29
c-46 -34 -68 -70 -68 -113 0 -75 -4 -85 -48 -137 -50 -58 -69 -92 -79 -138 -9
-41 -37 -57 -126 -75 -41 -9 -103 -30 -139 -48 -36 -18 -110 -56 -165 -84
-181 -93 -265 -109 -265 -52 0 15 -5 18 -22 14 -56 -13 -114 -21 -126 -17 -15
5 28 40 121 101 50 32 75 42 115 45 65 3 155 48 247 121 85 67 195 174 195
188 0 6 -9 20 -20 32 -16 18 -18 24 -7 37 24 32 203 159 267 191 103 50 165
100 317 253 78 79 144 144 147 144 3 0 -11 -23 -32 -52z m509 -53 c8 3 52 -28
103 -71 48 -41 113 -91 143 -110 29 -19 98 -71 151 -116 60 -50 155 -114 247
-167 130 -75 154 -93 182 -135 17 -26 87 -105 155 -175 114 -116 133 -131 227
-179 l104 -53 -33 41 c-18 23 -60 64 -94 93 -33 28 -92 83 -129 122 -56 58
-65 71 -50 76 24 9 72 -31 177 -145 62 -67 103 -103 148 -126 61 -33 233 -184
233 -205 0 -5 7 -10 15 -10 8 0 16 -4 17 -8 0 -5 13 -22 28 -37 15 -16 24 -33
21 -38 -3 -6 16 -13 45 -17 37 -5 54 -4 59 5 6 10 21 10 74 -1 54 -10 78 -10
130 0 36 7 73 10 84 7 11 -4 48 2 81 14 68 23 121 26 139 8 9 -9 15 -9 24 0
29 29 108 5 108 -33 0 -9 18 -14 61 -17 60 -3 61 -3 74 30 15 34 31 38 94 26
l31 -6 0 -69 c0 -62 -2 -70 -25 -85 -15 -10 -41 -15 -67 -13 -24 1 -51 -1 -61
-6 -11 -4 -29 -2 -45 6 -15 7 -30 15 -34 17 -5 2 -8 -3 -8 -12 0 -12 -11 -16
-49 -16 -28 0 -53 5 -57 11 -4 7 -20 8 -41 4 -29 -5 -35 -3 -40 14 -6 25 -25
27 -58 5 -37 -24 -145 -30 -184 -11 -18 9 -39 13 -47 10 -8 -3 -21 0 -29 7
-11 9 -25 10 -58 2 -46 -12 -86 -7 -102 13 -12 15 -67 16 -118 3 -26 -6 -43
-6 -52 2 -9 8 -14 6 -19 -6 -4 -11 -13 -14 -27 -11 -11 3 -40 -3 -64 -14 -45
-20 -75 -17 -75 7 0 8 -10 14 -24 14 -13 0 -29 7 -37 16 -12 14 -14 14 -26 -2
-8 -11 -27 -19 -46 -20 -17 0 -42 -4 -54 -8 -14 -4 -23 -3 -23 3 0 7 -16 8
-43 5 -29 -4 -55 -1 -82 11 -22 10 -50 17 -62 16 -13 -1 -23 3 -23 9 0 6 -20
-3 -45 -21 -25 -18 -60 -34 -78 -35 -17 -2 -43 -5 -57 -6 -17 -2 -25 2 -24 12
0 8 -8 23 -18 33 -19 18 -26 9 -7 -10 8 -8 8 -17 0 -31 -13 -25 -44 -36 -77
-28 -13 4 -32 1 -43 -6 -15 -9 -32 -8 -82 4 -93 22 -138 18 -172 -16 -26 -26
-29 -27 -51 -13 -21 14 -26 14 -52 -4 -35 -23 -87 -25 -109 -3 -8 9 -22 13
-30 10 -10 -3 -15 1 -15 13 0 18 22 45 31 37 2 -2 19 -6 38 -10 45 -8 33 3
-13 14 -26 6 -39 4 -47 -6 -19 -23 -80 -30 -94 -10 -15 20 -73 21 -100 2 -24
-17 -133 -20 -152 -4 -7 6 -11 19 -8 29 4 13 1 19 -8 19 -17 0 -30 27 -21 42
4 6 1 14 -5 18 -16 9 -79 -23 -98 -50 -17 -24 -65 -27 -87 -5 -14 14 -19 14
-52 0 -42 -17 -85 -20 -100 -5 -7 7 -29 2 -68 -16 -39 -18 -66 -24 -84 -20
-54 12 -108 12 -141 -1 -40 -15 -87 -17 -96 -3 -3 6 -14 10 -25 10 -10 0 -20
6 -23 14 -4 10 -18 12 -50 9 -37 -4 -49 -1 -69 17 l-23 21 24 20 c13 10 29 19
37 19 7 0 18 9 24 20 8 15 21 20 49 20 30 0 40 4 44 20 6 24 34 26 65 4 17
-11 26 -13 36 -5 16 13 102 18 134 7 21 -7 23 -5 17 13 -5 16 -1 22 19 27 14
3 26 12 26 19 0 30 57 28 93 -3 15 -13 25 -13 75 -3 31 7 76 21 100 32 l42 19
0 -21 c0 -16 4 -19 18 -14 9 3 38 9 63 12 45 5 46 6 45 41 -1 52 30 64 163 66
103 1 105 1 111 26 15 65 110 63 110 -2 1 -51 23 -73 75 -74 36 -1 45 2 45 15
0 9 5 22 12 29 15 15 55 16 63 1 4 -6 22 -8 44 -4 34 6 40 3 56 -21 16 -25 16
-28 1 -39 -23 -18 -20 -25 12 -25 32 0 52 -16 52 -42 0 -22 13 -23 30 -3 7 9
21 13 31 10 16 -5 19 -1 19 29 0 57 42 82 92 55 14 -8 23 -8 31 0 30 30 161
-4 189 -48 7 -12 22 -21 34 -21 13 0 38 -18 60 -42 21 -24 39 -37 42 -30 2 7
11 12 21 12 25 0 41 20 41 52 0 27 2 28 53 28 40 0 58 -5 71 -19 9 -10 31 -21
49 -24 18 -3 40 -9 51 -13 17 -7 17 -6 1 26 -16 32 -16 34 0 46 12 9 25 10 42
3 13 -5 39 -9 56 -9 49 0 60 -11 52 -52 -7 -39 -4 -43 55 -67 37 -15 142 -22
134 -9 -3 4 -23 5 -45 2 -22 -3 -45 -1 -52 4 -7 6 -28 14 -47 19 -33 9 -35 11
-32 50 4 48 -12 64 -65 68 -21 1 -49 5 -63 9 -27 7 -42 0 -56 -26 -9 -16 -14
-14 -56 20 -25 21 -78 58 -117 82 -50 30 -76 52 -85 74 -18 41 -102 124 -206
203 -47 35 -95 77 -108 93 -37 47 -168 149 -181 141 -8 -5 -5 -13 10 -27 27
-25 49 -67 49 -95 0 -36 43 -88 139 -169 74 -62 94 -85 115 -132 19 -43 37
-66 78 -96 57 -42 148 -135 148 -151 0 -5 -14 -14 -30 -20 l-30 -10 -40 79
c-34 68 -46 83 -83 101 -59 30 -77 48 -77 79 0 36 -29 72 -140 172 -68 61
-105 104 -130 149 -43 76 -63 88 -56 32 7 -62 22 -89 110 -206 79 -104 124
-180 141 -234 5 -20 3 -23 -19 -23 -14 0 -28 -5 -31 -10 -5 -8 -11 -7 -21 1
-26 22 -67 16 -91 -12 -13 -15 -23 -35 -23 -45 0 -11 -12 -24 -26 -31 -24 -11
-26 -10 -21 7 3 11 0 18 -6 17 -6 -1 -12 4 -13 11 -1 6 -2 15 -3 19 0 4 -6 2
-13 -5 -7 -7 -16 -12 -22 -12 -6 0 -5 5 2 12 16 16 15 23 -5 43 -14 14 -14 18
-2 27 11 8 11 9 -3 5 -21 -7 -31 5 -54 71 -10 28 -33 68 -51 87 -18 19 -33 41
-33 48 0 7 -11 34 -25 60 -14 26 -23 52 -20 58 4 5 2 8 -3 7 -11 -3 -84 101
-78 111 3 4 -4 8 -15 8 -25 2 -24 -3 12 -94 26 -64 33 -99 39 -193 5 -63 13
-128 19 -143 14 -35 14 -70 1 -62 -5 3 -10 14 -10 23 0 10 -9 36 -20 57 -11
22 -18 46 -15 53 3 7 1 11 -4 8 -4 -3 -11 25 -14 63 -4 48 -21 109 -57 202
-49 129 -81 232 -80 260 1 8 9 -8 20 -34 10 -27 17 -54 16 -60 -1 -7 -1 -9 1
-5 2 4 11 4 19 1 9 -3 14 2 14 16 0 12 6 21 15 21 8 0 17 12 21 28 3 15 7 33
10 40 2 6 0 12 -5 12 -5 0 -8 12 -8 28 0 25 1 25 17 -12 10 -21 21 -66 25 -99
3 -33 15 -78 26 -98 24 -47 24 -55 2 -38 -16 13 -17 12 -4 -3 7 -10 16 -16 20
-14 4 3 18 -16 32 -42 37 -71 98 -164 133 -201 17 -19 24 -32 16 -29 -10 4
-16 0 -16 -12 0 -15 4 -16 19 -8 10 5 16 15 14 22 -3 7 -1 19 3 27 12 19 72
-113 75 -164 1 -21 6 -41 10 -45 4 -4 4 4 1 18 -6 22 -5 23 5 7 6 -11 12 -25
13 -33 1 -8 6 -14 12 -14 13 2 10 15 -35 125 -36 87 -81 155 -102 155 -4 0 -5
-10 -2 -22 9 -44 -51 38 -125 170 -61 108 -73 139 -82 200 -11 81 -29 130 -53
151 -16 12 -17 7 -17 -58 0 -55 -3 -71 -14 -71 -8 0 -16 -8 -19 -17 -3 -14 -7
-11 -16 12 -27 64 -43 144 -46 225 -1 47 -6 93 -10 103 -10 24 13 22 44 -5
l26 -23 -22 26 c-13 14 -23 29 -23 33 0 5 -16 30 -35 56 -38 52 -46 73 -16 46
10 -9 24 -14 32 -11z m264 -15 c9 0 42 -20 73 -44 82 -62 202 -120 202 -96 0
5 -19 23 -41 41 -52 41 -36 50 23 13 116 -73 223 -161 275 -226 32 -41 90 -96
139 -131 99 -74 530 -349 629 -402 94 -51 222 -134 316 -206 43 -32 112 -81
155 -108 77 -50 78 -50 50 -61 -15 -5 -39 -7 -52 -4 -14 4 -52 1 -84 -6 -45
-10 -63 -10 -74 -1 -7 6 -20 9 -29 5 -20 -7 -80 24 -71 38 5 7 12 5 21 -7 7
-11 13 -15 13 -11 0 5 7 3 15 -4 9 -7 17 -11 19 -9 3 2 -32 34 -77 71 -45 37
-111 97 -147 134 -72 73 -110 102 -215 158 -38 21 -99 66 -135 100 -50 46 -85
69 -145 94 -44 18 -101 45 -126 60 -61 36 -194 158 -221 202 -43 72 -88 108
-187 150 -67 28 -120 60 -176 105 -53 43 -89 65 -107 65 -15 0 -30 5 -33 10
-4 6 -16 8 -28 5 -15 -4 -18 -3 -9 3 10 7 5 16 -23 41 -42 36 -39 59 5 36 16
-8 36 -15 45 -15z m-785 -86 c0 -3 -11 -24 -24 -47 -21 -36 -24 -54 -22 -117
2 -74 1 -77 -66 -211 -37 -75 -74 -139 -82 -142 -29 -11 -18 49 23 131 74 149
75 192 4 192 l-37 0 22 20 c12 12 31 37 42 58 27 52 39 65 85 95 40 26 55 32
55 21z m-160 -212 c0 -18 -175 -232 -189 -232 -12 0 4 126 19 145 24 32 90 77
124 86 44 10 46 10 46 1z m27 -39 c-8 -50 -77 -187 -127 -254 -47 -63 -102
-108 -182 -149 l-57 -30 14 39 c24 70 43 95 135 185 88 86 163 175 189 224 19
36 34 27 28 -15z m-616 -136 c-14 -18 19 -50 42 -42 8 4 18 2 21 -3 9 -15 -4
-42 -20 -42 -7 0 -19 -10 -25 -22 -7 -13 -26 -35 -43 -50 -17 -15 -40 -35 -51
-46 -70 -64 -111 -90 -129 -80 -13 7 -21 7 -26 -2 -5 -8 -15 -10 -26 -5 -11 4
-28 9 -39 11 -12 2 -14 0 -5 -3 10 -4 4 -10 -20 -20 -32 -12 -33 -13 -5 -8 17
3 39 8 50 12 13 3 17 2 10 -5 -16 -15 -76 -32 -89 -25 -7 4 -7 2 1 -7 9 -10
25 -7 79 14 84 34 94 28 13 -9 -43 -19 -70 -25 -92 -21 -19 4 -39 1 -54 -9
-12 -9 -23 -13 -23 -10 0 3 -35 -21 -77 -53 -99 -75 -140 -101 -129 -83 6 9 5
12 -5 9 -8 -3 -13 -11 -11 -17 1 -7 -2 -10 -8 -6 -7 4 -7 12 0 26 8 14 18 18
38 14 l27 -6 -25 16 c-14 9 -17 14 -7 11 28 -10 42 -13 35 -9 -4 2 -4 11 -1
19 3 8 0 14 -7 14 -6 0 -8 -4 -5 -10 8 -13 -5 -13 -25 0 -13 9 -13 10 0 10 9
0 33 12 54 26 24 17 54 27 77 28 35 1 36 2 17 12 -16 9 -18 13 -7 17 8 4 6 5
-6 4 -11 -2 -19 -9 -17 -15 1 -7 -8 -12 -20 -12 l-23 0 25 20 c14 11 28 20 33
20 4 0 26 14 49 30 22 17 46 30 52 29 6 0 1 -5 -11 -11 -28 -14 -30 -32 -3
-23 32 10 23 -2 -22 -30 -36 -21 -39 -25 -18 -23 27 3 28 4 76 43 18 14 37 25
43 25 6 0 11 4 11 10 0 5 -13 7 -28 4 -22 -5 -29 -2 -29 10 0 11 6 14 19 10
13 -4 16 -1 12 9 -3 8 2 17 12 21 13 5 14 4 6 -7 -45 -54 99 -14 162 44 11 11
22 15 24 9 6 -17 21 -11 21 8 0 9 3 30 7 46 l7 29 -43 -7 -42 -7 32 28 c26 22
41 26 78 24 49 -2 64 -14 59 -45 -1 -11 5 -21 13 -24 8 -3 12 -1 8 3 -4 5 -3
14 3 21 8 9 5 18 -11 34 -14 14 -19 28 -15 41 7 21 5 22 -20 13 -13 -5 -14 -8
-3 -15 9 -6 4 -9 -16 -9 -33 0 -31 4 21 36 43 26 61 31 44 11z m1854 -76 c17
-13 30 -28 30 -32 0 -4 7 -14 15 -21 12 -11 12 -11 1 5 -15 19 -2 24 16 6 9
-9 8 -18 -4 -38 -14 -24 -14 -25 1 -6 16 19 17 19 34 0 16 -18 16 -18 -3 -4
-18 13 -19 13 -6 -3 7 -10 20 -18 27 -18 8 0 14 -4 14 -9 0 -5 21 -23 48 -40
69 -46 138 -108 129 -117 -4 -5 -12 -2 -17 6 -6 8 -10 10 -10 5 0 -13 20 -35
32 -35 4 0 7 3 7 8 -4 22 4 20 28 -8 19 -23 27 -43 26 -69 -1 -30 1 -32 8 -13
5 12 6 30 3 40 -4 9 3 4 15 -13 11 -16 21 -35 21 -40 0 -6 9 -16 20 -23 12 -7
18 -17 15 -22 -3 -5 0 -7 8 -4 8 3 18 1 21 -4 3 -6 26 -20 51 -32 25 -12 43
-26 39 -31 -3 -5 2 -9 11 -9 9 0 30 -13 46 -29 16 -16 34 -32 41 -35 7 -3 0
-3 -17 -1 -16 2 -34 4 -39 4 -4 1 -6 7 -3 15 3 8 -2 20 -11 28 -16 12 -16 11
-2 -6 14 -18 14 -19 -7 -8 -27 15 -88 15 -114 1 -30 -15 -63 15 -48 43 9 16 7
24 -7 37 -11 9 -13 9 -6 2 14 -18 16 -35 2 -26 -6 3 -7 -1 -4 -9 3 -9 3 -16
-1 -16 -11 0 -49 51 -57 74 -4 16 -6 17 -7 4 -1 -14 -7 -13 -41 9 -22 15 -40
31 -40 35 0 5 5 6 11 2 7 -4 2 7 -11 24 -13 18 -19 35 -15 43 5 7 4 10 -2 6
-6 -4 -20 9 -32 28 -11 19 -26 35 -33 35 -7 0 -37 23 -67 50 -53 48 -54 50
-37 69 13 14 14 21 5 27 -7 4 -10 3 -6 -3 4 -6 0 -16 -8 -23 -13 -10 -19 -9
-36 5 -11 11 -17 25 -14 32 2 8 1 12 -4 9 -11 -7 -21 17 -21 52 0 16 -13 40
-32 61 -33 35 -21 29 37 -18z m510 -116 c22 -10 46 -19 53 -21 24 -5 41 -25
37 -44 -3 -14 1 -17 13 -13 10 4 12 8 4 11 -7 2 -9 8 -6 13 3 6 11 6 20 -2 7
-6 11 -15 8 -20 -3 -5 2 -6 12 -2 14 5 15 3 4 -18 -10 -19 -10 -22 0 -12 10 9
22 4 55 -25 24 -20 73 -52 109 -70 36 -19 64 -37 61 -42 -3 -4 3 -7 13 -6 10
0 16 -5 14 -13 -2 -8 3 -11 13 -8 10 4 42 -21 98 -76 45 -45 104 -101 130
-124 32 -28 44 -44 36 -49 -8 -4 -29 11 -56 39 -23 25 -43 44 -43 42 0 -2 -17
13 -37 33 -21 20 -37 40 -35 44 1 5 -1 7 -5 6 -14 -5 -83 54 -76 65 3 5 2 7
-4 4 -13 -8 -75 37 -65 47 4 5 0 7 -8 5 -19 -3 -70 21 -70 34 0 5 -7 7 -15 4
-8 -4 -17 -2 -20 3 -9 15 -32 12 -39 -6 -3 -8 -2 -12 4 -9 7 5 43 -18 115 -73
133 -101 153 -120 172 -156 14 -28 14 -28 -31 9 -25 21 -43 42 -40 47 3 4 -1
8 -8 8 -7 0 -31 18 -53 40 -21 23 -73 60 -115 84 -84 49 -145 107 -128 124 7
7 6 10 -4 9 -8 -1 -50 31 -93 72 -43 41 -75 72 -69 69 5 -3 27 -14 49 -23z
m-3073 -212 c13 2 32 8 43 13 18 7 19 6 5 -11 -14 -17 -13 -17 10 -10 14 5 33
9 43 9 9 0 17 4 17 8 0 4 8 8 17 8 39 0 -31 -33 -72 -34 -32 -1 -59 -13 -121
-52 -43 -28 -142 -86 -219 -129 -142 -80 -358 -215 -583 -364 -67 -44 -124
-81 -127 -81 -3 0 -5 12 -5 28 0 24 17 37 173 132 94 58 289 183 432 279 315
212 335 223 352 209 7 -6 23 -8 35 -5z m-129 -176 c15 0 27 -3 27 -7 0 -4 -7
-7 -15 -7 -16 0 -97 -34 -105 -44 -15 -19 -67 -37 -83 -28 -9 6 -22 7 -27 4
-15 -9 -1 -27 16 -21 26 10 14 -2 -23 -25 -21 -12 -54 -35 -75 -51 -32 -25
-38 -27 -51 -13 -20 19 -27 19 -27 -1 0 -11 -6 -14 -22 -10 -13 3 -17 3 -10 0
18 -9 4 -24 -16 -17 -9 3 -14 3 -11 -1 9 -10 50 -16 44 -7 -2 5 6 11 20 13 14
3 25 4 25 3 0 -9 -58 -39 -73 -38 -9 1 -15 -2 -12 -7 3 -6 0 -7 -8 -4 -10 3
-14 -1 -14 -13 1 -9 -4 -18 -11 -18 -7 0 -16 -5 -20 -11 -15 -22 -125 -97
-119 -80 6 14 3 16 -13 11 -11 -4 -20 -2 -20 4 0 6 -5 11 -11 11 -8 0 -8 -4 0
-14 9 -10 8 -16 -4 -26 -9 -7 -19 -10 -22 -6 -4 4 -1 11 7 16 8 6 10 10 4 10
-5 0 -19 -7 -30 -15 -16 -12 -17 -14 -3 -15 28 0 28 -26 1 -48 -89 -71 -117
-90 -129 -85 -8 3 -13 0 -11 -7 2 -6 -6 -18 -17 -26 -19 -13 -21 -12 -21 11 0
14 5 24 11 22 6 -1 10 2 10 8 0 5 -6 9 -12 7 -7 -2 -13 5 -13 15 0 21 72 72
78 54 2 -6 8 -11 14 -11 5 0 7 9 3 20 -5 15 0 23 22 32 15 7 49 28 76 46 26
19 47 29 47 23 0 -6 5 -11 11 -11 6 0 9 7 6 14 -6 15 70 73 143 111 19 10 37
21 40 25 11 16 70 39 85 34 10 -4 15 -2 13 6 -2 8 7 19 19 25 13 7 21 14 18
17 -9 9 138 82 158 79 24 -3 96 21 78 27 -11 4 -11 6 0 14 11 8 11 9 -1 5 -8
-2 -14 -10 -12 -17 2 -7 -3 -10 -12 -7 -8 3 -16 1 -18 -5 -2 -6 -13 -8 -23 -6
-16 3 -12 8 20 26 22 11 47 18 55 15 8 -4 27 -6 43 -6z m4506 -975 c16 -32 17
-33 67 -27 35 4 65 1 95 -10 24 -9 53 -17 64 -18 27 -3 24 -59 -5 -99 -16 -22
-20 -37 -15 -56 4 -15 9 -55 11 -89 3 -59 2 -64 -32 -102 -36 -40 -107 -77
-125 -65 -6 3 -26 3 -46 -1 -32 -6 -34 -7 -17 -19 11 -7 62 -22 115 -34 53
-12 107 -26 120 -32 l24 -11 -25 6 c-81 18 -129 26 -160 26 -53 1 -91 10 -84
20 3 5 1 9 -5 9 -5 0 -12 -6 -15 -12 -3 -7 -4 -2 -1 12 2 14 0 32 -5 40 -5 8
-10 13 -11 10 0 -3 -2 -13 -4 -23 -2 -11 1 -15 8 -10 7 3 8 2 4 -3 -5 -5 -11
-8 -13 -6 -3 2 -20 -10 -39 -26 -32 -29 -104 -52 -160 -52 -15 0 -31 -11 -45
-30 -24 -34 -36 -37 -62 -13 -16 15 -23 15 -54 4 -56 -20 -84 17 -49 67 15 21
15 22 -12 16 -21 -4 -33 0 -47 15 -19 21 -39 98 -26 103 4 2 11 14 15 27 7 23
6 24 -36 16 -93 -16 -99 -15 -111 5 -7 11 -21 20 -31 20 -11 0 -15 5 -11 11 4
7 0 9 -13 5 -11 -4 -33 -1 -49 5 -36 15 -30 14 -81 23 -24 4 -43 12 -43 17 0
5 11 4 26 -1 33 -13 54 -13 54 0 0 6 -14 10 -30 10 -20 0 -30 5 -28 13 2 6 0
13 -5 15 -4 1 -8 -1 -9 -5 -1 -5 -8 -14 -15 -22 -21 -20 -29 -4 -9 18 12 13
15 27 10 45 -3 14 -9 24 -13 21 -4 -2 -8 2 -8 9 0 8 6 12 14 9 7 -3 13 -14 13
-24 0 -10 4 -19 9 -19 5 0 8 8 6 18 -1 9 0 11 2 5 5 -15 39 -17 47 -4 7 11 54
2 63 -12 4 -6 -2 -8 -15 -5 -12 4 -20 2 -17 -2 3 -4 -9 -13 -25 -19 -36 -12
-40 -31 -6 -31 15 0 27 -7 31 -19 6 -21 33 -33 84 -36 20 -1 41 -10 51 -22 9
-11 26 -24 38 -27 21 -7 21 -6 7 21 -8 15 -12 36 -9 46 3 10 0 17 -8 17 -11 0
-11 2 0 9 8 5 16 35 19 70 5 50 10 65 28 77 12 8 29 12 37 9 9 -4 22 0 29 7 8
7 28 14 44 15 20 2 25 -1 16 -6 -9 -6 -10 -11 -2 -15 13 -9 33 2 26 14 -3 4 4
6 14 3 13 -3 18 -11 15 -21 -5 -14 -4 -14 6 1 6 9 21 17 33 16 21 0 21 -1 2
-9 -16 -7 -11 -9 20 -9 30 0 35 2 20 8 -12 5 13 9 68 9 113 1 123 5 147 52 22
42 77 91 99 88 8 -2 21 -18 30 -36z"/>
<path d="M2327 3909 c-9 -5 -21 -7 -27 -4 -14 9 -57 -5 -57 -18 0 -7 -3 -22
-7 -34 -6 -17 -3 -23 8 -23 9 0 16 -4 16 -10 0 -18 18 -10 23 10 7 27 35 25
39 -2 2 -14 9 -22 18 -20 8 2 21 -5 28 -15 10 -13 16 -14 19 -5 6 15 35 16 51
0 9 -9 12 -9 12 -1 0 7 -4 15 -10 18 -16 10 -12 35 6 35 11 0 14 5 10 16 -4
10 1 25 11 36 17 18 16 19 -11 8 -18 -6 -33 -7 -40 -1 -7 6 -18 4 -30 -4 -21
-16 -49 -8 -42 11 6 16 6 16 -17 3z"/>
<path d="M5313 692 c-28 -24 -53 -60 -53 -77 0 -3 17 -3 39 0 46 7 67 -11 57
-50 -4 -15 -2 -25 5 -25 6 0 3 -7 -5 -16 -10 -9 -16 -33 -16 -60 0 -24 -4 -44
-8 -44 -4 0 -16 -14 -26 -31 -17 -29 -17 -31 0 -50 9 -10 23 -19 30 -19 7 0
15 -4 18 -9 4 -5 -3 -7 -14 -4 -11 3 -20 0 -20 -6 0 -6 9 -11 19 -11 10 0 21
-7 25 -15 4 -13 2 -14 -14 -5 -25 13 -27 -1 -2 -16 22 -14 126 -8 156 9 13 6
36 27 52 46 26 31 26 34 11 46 -21 15 -22 35 -2 35 18 0 19 25 3 84 -11 41
-10 46 9 63 11 10 23 32 26 49 6 31 5 32 -54 48 -37 11 -81 16 -114 13 -49 -4
-55 -2 -61 17 -4 11 -12 28 -18 38 -10 15 -15 14 -43 -10z"/>
<path d="M5286 593 c-4 -5 -20 -9 -34 -9 -15 -1 -43 -4 -62 -8 -19 -3 -82 -13
-140 -21 -58 -9 -113 -21 -122 -26 -25 -13 -28 -12 -28 10 0 23 -25 34 -48 22
-9 -5 -30 -9 -45 -9 -36 1 -40 -5 -39 -44 1 -18 -3 -57 -9 -86 -12 -61 0 -88
35 -77 12 4 32 8 46 10 14 2 47 9 74 15 53 11 66 6 69 -28 1 -16 7 -20 28 -17
26 3 26 2 18 -33 -5 -21 -9 -40 -9 -45 0 -4 -11 -12 -25 -19 -18 -8 -28 -8
-38 1 -11 9 -17 8 -27 -4 -16 -20 -56 -19 -64 1 -10 26 12 92 37 109 12 8 17
15 11 15 -6 0 -21 -11 -33 -24 -31 -33 -40 -106 -16 -129 20 -21 48 -22 64 -3
7 8 20 12 31 9 18 -5 17 -9 -15 -46 -50 -58 -45 -74 18 -55 29 9 40 8 59 -4
21 -14 24 -13 48 12 19 21 38 28 84 34 105 12 156 52 156 124 0 31 -26 62 -52
62 -9 0 -19 7 -22 16 -9 23 -8 24 12 24 31 0 54 36 73 113 25 99 25 117 -4
117 -13 0 -27 -3 -31 -7z m-402 -59 c0 -10 -4 -41 -8 -68 -8 -52 7 -58 17 -7
9 42 41 71 78 71 33 0 33 -3 13 -72 -6 -19 11 -25 21 -8 3 5 7 28 8 50 1 33 5
40 18 37 9 -2 23 0 32 4 8 5 23 6 32 3 35 -14 -5 -124 -44 -124 -21 0 -33 -22
-25 -45 4 -11 0 -15 -16 -15 -18 0 -21 5 -18 23 4 23 2 24 -47 22 -28 -1 -61
-7 -73 -14 -30 -16 -45 -5 -38 30 4 22 2 29 -9 29 -14 0 -17 -7 -19 -55 -1
-11 -8 -20 -16 -20 -16 0 -16 7 -9 110 6 73 39 89 39 19 0 -23 4 -34 12 -32
16 6 29 56 16 64 -6 4 -5 10 3 15 20 12 34 5 33 -17z m321 -146 c4 -18 7 -48
6 -66 0 -32 1 -33 18 -18 26 23 50 20 63 -9 24 -54 -43 -125 -119 -125 -46 0
-103 -20 -115 -40 -10 -15 -16 -16 -31 -8 -11 6 -38 8 -60 5 l-39 -5 33 35
c41 43 85 63 138 63 22 0 41 5 43 12 3 7 20 11 44 10 33 -2 42 2 55 24 10 17
19 22 23 15 4 -6 -4 -22 -18 -36 -14 -14 -21 -25 -16 -25 18 0 50 39 50 60 0
23 -31 41 -38 22 -6 -20 -32 -42 -49 -42 -13 0 -14 8 -9 40 4 25 2 40 -4 40
-7 0 -7 6 0 20 7 14 7 20 0 20 -5 0 -10 -4 -10 -10 0 -5 -4 -10 -9 -10 -12 0
-1 43 13 52 19 13 24 9 31 -24z"/>
</g>
</svg>
